arm28_optimize_states
version=1
nRows=13
nColumns=21
inDegrees=yes

# SIMM Motion File Header:
name arm28_optimize_states
datacolumns 21
datarows 13
otherdata 1
range 0.00000000 0.04648747
endheader
time	r_shoulder_elev	r_elbow_flex	r_shoulder_elev_u	r_elbow_flex_u	TRIlong.activation	TRIlong.fiber_length	TRIlat.activation	TRIlat.fiber_length	TRImed.activation	TRImed.fiber_length	BIClong.activation	BIClong.fiber_length	BICshort.activation	BICshort.fiber_length	BRA.activation	BRA.fiber_length	DeltAnt.activation	DeltAnt.fiber_length	DeltPost.activation	DeltPost.fiber_length
      0.00000000	      0.00000000	     20.00000857	      0.00000000	     -0.00000000	      0.05000000	      0.14386600	      0.05000000	      0.07785700	      0.05000000	      0.07291300	      0.08940600	      0.13947600	      0.10718200	      0.14134700	      0.05198900	      0.08637800	      0.05000000	      0.16196800	      0.10768200	      0.10836700
      0.00209967	     -0.00007371	     20.00016445	     -0.06539751	      0.13311558	      0.04881255	      0.14386707	      0.04881255	      0.07785792	      0.04881255	      0.07291387	      0.08681432	      0.13948620	      0.10388130	      0.14135749	      0.05073623	      0.08637854	      0.04881255	      0.16196930	      0.10436068	      0.10836855
      0.00535332	     -0.00038016	     20.00070557	     -0.10946693	      0.15969860	      0.04704843	      0.14387266	      0.04704843	      0.07786263	      0.04704843	      0.07291845	      0.08299300	      0.13950634	      0.09903103	      0.14137920	      0.04887578	      0.08638180	      0.04704843	      0.16197456	      0.09948057	      0.10837487
      0.00860697	     -0.00066326	     20.00087754	     -0.04140441	     -0.11210180	      0.04537191	      0.14388218	      0.04537191	      0.07787057	      0.04537191	      0.07292610	      0.07939319	      0.13953101	      0.09447976	      0.14140654	      0.04710850	      0.08638721	      0.04537191	      0.16198185	      0.09490181	      0.10838435
      0.01186061	     -0.00048320	     19.99957119	      0.17685377	     -0.75049511	      0.04377800	      0.14389463	      0.04377800	      0.07788074	      0.04377800	      0.07293577	      0.07599904	      0.13955932	      0.09020431	      0.14143839	      0.04542901	      0.08639408	      0.04377800	      0.16198985	      0.09060098	      0.10839574
      0.01568155	      0.00094735	     19.99463317	      0.59429490	     -1.88903028	      0.04200536	      0.14391170	      0.04200536	      0.07789425	      0.04200536	      0.07294839	      0.07225633	      0.13959613	      0.08550743	      0.14148023	      0.04356202	      0.08640332	      0.04200536	      0.16199915	      0.08587671	      0.10841070
      0.01950249	      0.00416603	     19.98485834	      1.09668084	     -3.24610170	      0.04033323	      0.14393017	      0.04033323	      0.07790809	      0.04033323	      0.07296106	      0.06875632	      0.13963577	      0.08113181	      0.14152566	      0.04180167	      0.08641338	      0.04033323	      0.16200764	      0.08147603	      0.10842706
      0.02332342	      0.00932954	     19.96978750	      1.60224324	     -4.63844873	      0.03875516	      0.14394902	      0.03875516	      0.07792120	      0.03875516	      0.07297276	      0.06548000	      0.13967736	      0.07705034	      0.14157373	      0.04014104	      0.08642393	      0.03875516	      0.16201495	      0.07737160	      0.10844480
      0.02815737	      0.01852749	     19.94324472	      2.19346294	     -6.32724419	      0.03688421	      0.14397230	      0.03688421	      0.07793568	      0.03688421	      0.07298525	      0.06162893	      0.13973175	      0.07227074	      0.14163726	      0.03817310	      0.08643775	      0.03688421	      0.16202229	      0.07256561	      0.10846917
      0.03399029	      0.03324439	     19.90065226	      2.84454300	     -8.26442313	      0.03479870	      0.14399839	      0.03479870	      0.07794910	      0.03479870	      0.07299607	      0.05737823	      0.13979876	      0.06701739	      0.14171663	      0.03598058	      0.08645486	      0.03479870	      0.16202833	      0.06728387	      0.10850129
      0.03879341	      0.04814726	     19.85718889	      3.35920443	     -9.83202977	      0.03321106	      0.14401767	      0.03321106	      0.07795645	      0.03321106	      0.07300122	      0.05417158	      0.13985434	      0.06306973	      0.14178343	      0.03431228	      0.08646917	      0.03321106	      0.16203113	      0.06331530	      0.10852978
      0.04359653	      0.06550213	     19.80621095	      3.86610688	    -11.39383118	      0.03173107	      0.14403469	      0.03173107	      0.07796035	      0.03173107	      0.07300290	      0.05120485	      0.13990988	      0.05942913	      0.14185113	      0.03275771	      0.08648363	      0.03173107	      0.16203200	      0.05965575	      0.10855999
      0.04648747	      0.07712433	     19.77189962	      4.17804577	    -12.35148561	      0.03088878	      0.14404379	      0.03088878	      0.07796100	      0.03088878	      0.07300167	      0.04952604	      0.13994322	      0.05737396	      0.14189221	      0.03187325	      0.08649240	      0.03088878	      0.16203141	      0.05759002	      0.10857899
